<svg xmlns="http://www.w3.org/2000/svg" xmlns:xlink="http://www.w3.org/1999/xlink" width="500" zoomAndPan="magnify" viewBox="0 0 375 374.999991" height="500" preserveAspectRatio="xMidYMid meet" version="1.0"><defs><g/></defs><g fill="#000000" fill-opacity="1"><g transform="translate(28.083497, 104.408528)"><g><path d="M 96.546875 -19.03125 C 96.972656 -18.71875 97.21875 -18.3125 97.28125 -17.8125 C 97.34375 -17.320312 97.25 -16.890625 97 -16.515625 C 96.632812 -16.023438 96.140625 -15.78125 95.515625 -15.78125 C 95.273438 -15.78125 95.03125 -15.84375 94.78125 -15.96875 C 94.09375 -16.09375 92.03125 -16.226562 88.59375 -16.375 C 85.164062 -16.53125 81.097656 -16.703125 76.390625 -16.890625 C 75.097656 -11.441406 73.816406 -5.976562 72.546875 -0.5 C 71.273438 4.96875 70.113281 10.238281 69.0625 15.3125 C 67.519531 22.550781 66.328125 28.445312 65.484375 33 C 64.648438 37.550781 64.09375 41.078125 63.8125 43.578125 C 63.539062 46.085938 63.40625 47.898438 63.40625 49.015625 C 63.644531 48.578125 63.921875 48.113281 64.234375 47.625 C 64.484375 47.1875 64.851562 46.90625 65.34375 46.78125 C 65.84375 46.65625 66.28125 46.71875 66.65625 46.96875 C 67.082031 47.21875 67.359375 47.570312 67.484375 48.03125 C 67.609375 48.5 67.546875 48.953125 67.296875 49.390625 C 66.679688 50.503906 65.984375 51.539062 65.203125 52.5 C 64.429688 53.457031 63.582031 53.9375 62.65625 53.9375 C 62.34375 53.9375 62.035156 53.875 61.734375 53.75 C 61.171875 53.5 60.71875 52.988281 60.375 52.21875 C 60.039062 51.445312 59.875 50.160156 59.875 48.359375 C 59.875 46.566406 60.101562 44.0625 60.5625 40.84375 C 61.03125 37.625 61.757812 33.445312 62.75 28.3125 C 63.738281 23.175781 65.050781 16.894531 66.6875 9.46875 C 68.332031 2.039062 70.363281 -6.773438 72.78125 -16.984375 C 69.6875 -17.046875 66.53125 -17.125 63.3125 -17.21875 C 60.09375 -17.3125 56.96875 -17.390625 53.9375 -17.453125 C 53.1875 -17.515625 52.472656 -17.546875 51.796875 -17.546875 C 51.117188 -17.546875 50.4375 -17.546875 49.75 -17.546875 C 45.789062 -10.054688 41.953125 -3.03125 38.234375 3.53125 C 34.523438 10.09375 31.125 15.472656 28.03125 19.671875 C 26.113281 22.210938 24.300781 23.882812 22.59375 24.6875 C 20.894531 25.5 19.378906 25.8125 18.046875 25.625 C 16.722656 25.4375 15.660156 25.09375 14.859375 24.59375 C 12.816406 23.414062 11.082031 21.523438 9.65625 18.921875 C 8.226562 16.328125 7.082031 13.265625 6.21875 9.734375 C 5.351562 6.210938 4.84375 2.488281 4.6875 -1.4375 C 4.53125 -5.363281 4.742188 -9.242188 5.328125 -13.078125 C 5.921875 -16.921875 6.898438 -20.421875 8.265625 -23.578125 C 11.046875 -29.890625 15.113281 -34.128906 20.46875 -36.296875 C 25.820312 -38.460938 32.117188 -38.398438 39.359375 -36.109375 C 39.859375 -35.984375 40.210938 -35.703125 40.421875 -35.265625 C 40.640625 -34.835938 40.65625 -34.375 40.46875 -33.875 C 40.34375 -33.445312 40.0625 -33.109375 39.625 -32.859375 C 39.195312 -32.609375 38.738281 -32.578125 38.25 -32.765625 C 36.082031 -33.453125 33.757812 -33.914062 31.28125 -34.15625 C 28.800781 -34.40625 26.335938 -34.234375 23.890625 -33.640625 C 21.453125 -33.054688 19.164062 -31.851562 17.03125 -30.03125 C 14.894531 -28.207031 13.054688 -25.5625 11.515625 -22.09375 C 10.085938 -18.875 9.125 -15.453125 8.625 -11.828125 C 8.132812 -8.210938 8.015625 -4.609375 8.265625 -1.015625 C 8.515625 2.566406 9.023438 5.921875 9.796875 9.046875 C 10.566406 12.171875 11.539062 14.832031 12.71875 17.03125 C 13.894531 19.226562 15.191406 20.726562 16.609375 21.53125 C 19.210938 23.019531 22.0625 21.691406 25.15625 17.546875 C 28.0625 13.585938 31.28125 8.507812 34.8125 2.3125 C 38.34375 -3.875 41.992188 -10.523438 45.765625 -17.640625 C 38.210938 -17.890625 32.160156 -18.085938 27.609375 -18.234375 C 23.066406 -18.390625 20.332031 -18.5625 19.40625 -18.75 C 18.90625 -18.875 18.515625 -19.132812 18.234375 -19.53125 C 17.960938 -19.9375 17.890625 -20.390625 18.015625 -20.890625 C 18.066406 -21.378906 18.3125 -21.75 18.75 -22 C 19.1875 -22.25 19.617188 -22.34375 20.046875 -22.28125 C 20.671875 -22.15625 22.328125 -22.03125 25.015625 -21.90625 C 27.710938 -21.78125 31.039062 -21.65625 35 -21.53125 C 38.957031 -21.40625 43.164062 -21.285156 47.625 -21.171875 C 49.664062 -25.191406 51.722656 -29.226562 53.796875 -33.28125 C 55.867188 -37.332031 57.925781 -41.335938 59.96875 -45.296875 C 64.914062 -55.140625 69.0625 -63.265625 72.40625 -69.671875 C 75.75 -76.078125 78.503906 -81.039062 80.671875 -84.5625 C 82.835938 -88.09375 84.613281 -90.488281 86 -91.75 C 87.394531 -93.019531 88.617188 -93.472656 89.671875 -93.109375 C 90.785156 -92.671875 91.4375 -91.753906 91.625 -90.359375 C 91.8125 -88.972656 91.8125 -87.257812 91.625 -85.21875 C 91.25 -81.195312 90.164062 -75.191406 88.375 -67.203125 C 87.8125 -64.546875 87.019531 -61.144531 86 -57 C 84.976562 -52.851562 83.878906 -48.273438 82.703125 -43.265625 C 81.835938 -39.734375 80.941406 -36.03125 80.015625 -32.15625 C 79.085938 -28.289062 78.160156 -24.378906 77.234375 -20.421875 C 82.429688 -20.234375 86.359375 -20.078125 89.015625 -19.953125 C 91.679688 -19.828125 93.539062 -19.6875 94.59375 -19.53125 C 95.644531 -19.382812 96.296875 -19.21875 96.546875 -19.03125 Z M 54.03125 -21.078125 C 57.988281 -20.953125 61.578125 -20.84375 64.796875 -20.75 C 68.015625 -20.65625 70.953125 -20.578125 73.609375 -20.515625 C 75.285156 -27.691406 77.144531 -35.550781 79.1875 -44.09375 C 80.414062 -49.101562 81.523438 -53.679688 82.515625 -57.828125 C 83.515625 -61.972656 84.320312 -65.347656 84.9375 -67.953125 C 85.925781 -72.648438 86.664062 -76.421875 87.15625 -79.265625 C 87.65625 -82.117188 87.96875 -84.300781 88.09375 -85.8125 C 88.21875 -87.332031 88.25 -88.398438 88.1875 -89.015625 C 87.132812 -87.960938 85.675781 -85.90625 83.8125 -82.84375 C 81.957031 -79.78125 79.867188 -76.082031 77.546875 -71.75 C 75.234375 -67.425781 72.835938 -62.816406 70.359375 -57.921875 C 67.890625 -53.035156 65.476562 -48.300781 63.125 -43.71875 C 61.269531 -40.007812 59.363281 -36.25 57.40625 -32.4375 C 55.457031 -28.632812 53.523438 -24.847656 51.609375 -21.078125 C 51.984375 -21.078125 52.367188 -21.078125 52.765625 -21.078125 C 53.171875 -21.078125 53.59375 -21.078125 54.03125 -21.078125 Z M 54.03125 -21.078125 "/></g></g></g><g fill="#000000" fill-opacity="1"><g transform="translate(129.986864, 104.408528)"><g><path d="M 37.40625 -20.703125 C 37.84375 -20.453125 38.125 -20.09375 38.25 -19.625 C 38.375 -19.164062 38.3125 -18.71875 38.0625 -18.28125 C 35.15625 -13.144531 32.539062 -9.203125 30.21875 -6.453125 C 27.894531 -3.703125 25.523438 -2.476562 23.109375 -2.78125 C 20.015625 -3.15625 17.570312 -6.5 15.78125 -12.8125 C 15.164062 -14.851562 14.625 -16.320312 14.15625 -17.21875 C 13.6875 -18.113281 13.3125 -18.671875 13.03125 -18.890625 C 12.757812 -19.109375 12.5625 -19.21875 12.4375 -19.21875 C 12.25 -19.28125 11.875 -19.09375 11.3125 -18.65625 C 10.757812 -18.226562 9.957031 -17.269531 8.90625 -15.78125 C 7.851562 -14.289062 6.550781 -11.984375 5 -8.859375 C 3.457031 -5.734375 1.570312 -1.453125 -0.65625 3.984375 C -0.957031 4.734375 -1.484375 5.109375 -2.234375 5.109375 C -2.410156 5.109375 -2.5625 5.078125 -2.6875 5.015625 C -3.738281 4.765625 -4.203125 4.113281 -4.078125 3.0625 C -3.773438 0.519531 -3.21875 -2.414062 -2.40625 -5.75 C -1.601562 -9.09375 -0.722656 -12.5 0.234375 -15.96875 C 1.191406 -19.4375 2.070312 -22.53125 2.875 -25.25 C 3.0625 -25.863281 3.234375 -26.429688 3.390625 -26.953125 C 3.546875 -27.484375 3.6875 -28 3.8125 -28.5 C 3.988281 -28.988281 4.296875 -29.34375 4.734375 -29.5625 C 5.171875 -29.78125 5.601562 -29.828125 6.03125 -29.703125 C 6.53125 -29.578125 6.898438 -29.296875 7.140625 -28.859375 C 7.390625 -28.429688 7.421875 -27.972656 7.234375 -27.484375 C 7.117188 -26.984375 6.984375 -26.46875 6.828125 -25.9375 C 6.671875 -25.414062 6.5 -24.847656 6.3125 -24.234375 C 5.875 -22.617188 5.375 -20.851562 4.8125 -18.9375 C 4.257812 -17.019531 3.707031 -15.070312 3.15625 -13.09375 C 5.257812 -17.050781 7.050781 -19.675781 8.53125 -20.96875 C 10.019531 -22.269531 11.382812 -22.890625 12.625 -22.828125 C 14.351562 -22.710938 15.710938 -21.753906 16.703125 -19.953125 C 17.691406 -18.160156 18.53125 -16.085938 19.21875 -13.734375 C 20.144531 -10.515625 21.007812 -8.472656 21.8125 -7.609375 C 22.613281 -6.742188 23.203125 -6.3125 23.578125 -6.3125 C 24.378906 -6.1875 25.320312 -6.632812 26.40625 -7.65625 C 27.488281 -8.675781 28.570312 -9.972656 29.65625 -11.546875 C 30.738281 -13.128906 31.757812 -14.691406 32.71875 -16.234375 C 33.675781 -17.785156 34.40625 -19.054688 34.90625 -20.046875 C 35.15625 -20.484375 35.523438 -20.765625 36.015625 -20.890625 C 36.515625 -21.015625 36.976562 -20.953125 37.40625 -20.703125 Z M 37.40625 -20.703125 "/></g></g></g><g fill="#000000" fill-opacity="1"><g transform="translate(163.119371, 104.408528)"><g><path d="M 39.640625 -77.515625 C 39.828125 -77.390625 40.007812 -77.09375 40.1875 -76.625 C 40.375 -76.164062 40.46875 -75.363281 40.46875 -74.21875 C 40.46875 -73.070312 40.21875 -71.398438 39.71875 -69.203125 C 39.226562 -67.003906 38.394531 -64.082031 37.21875 -60.4375 C 37.039062 -59.9375 36.875 -59.421875 36.71875 -58.890625 C 36.5625 -58.367188 36.390625 -57.863281 36.203125 -57.375 C 34.773438 -52.914062 33.039062 -47.914062 31 -42.375 C 28.957031 -36.832031 26.207031 -30.785156 22.75 -24.234375 C 21.9375 -20.203125 21.097656 -15.910156 20.234375 -11.359375 C 19.367188 -6.816406 18.503906 -2.007812 17.640625 3.0625 C 16.523438 9.9375 15.640625 15.597656 14.984375 20.046875 C 14.335938 24.503906 13.890625 28.046875 13.640625 30.671875 C 13.398438 33.304688 13.25 35.304688 13.1875 36.671875 C 13.675781 36.484375 14.171875 36.484375 14.671875 36.671875 C 15.097656 36.910156 15.390625 37.265625 15.546875 37.734375 C 15.703125 38.203125 15.6875 38.648438 15.5 39.078125 C 15.1875 39.765625 14.753906 40.523438 14.203125 41.359375 C 13.648438 42.191406 12.96875 42.609375 12.15625 42.609375 C 11.914062 42.609375 11.671875 42.578125 11.421875 42.515625 C 10.796875 42.328125 10.328125 41.878906 10.015625 41.171875 C 9.710938 40.460938 9.578125 39.097656 9.609375 37.078125 C 9.640625 35.066406 9.898438 32.019531 10.390625 27.9375 C 11.140625 21.5 12.378906 13.019531 14.109375 2.5 C 15.097656 -3.25 16.117188 -8.847656 17.171875 -14.296875 C 16.242188 -12.804688 15.269531 -11.285156 14.25 -9.734375 C 13.226562 -8.191406 12.160156 -6.617188 11.046875 -5.015625 C 9.378906 -2.535156 7.863281 -0.785156 6.5 0.234375 C 5.132812 1.253906 3.941406 1.796875 2.921875 1.859375 C 1.898438 1.921875 1.050781 1.765625 0.375 1.390625 C -0.988281 0.585938 -1.851562 -0.832031 -2.21875 -2.875 C -2.59375 -4.914062 -2.546875 -7.21875 -2.078125 -9.78125 C -1.617188 -12.351562 -0.863281 -14.816406 0.1875 -17.171875 C 2.351562 -21.753906 4.84375 -24.988281 7.65625 -26.875 C 10.46875 -28.757812 12.867188 -29.425781 14.859375 -28.875 C 15.285156 -28.6875 15.960938 -28.265625 16.890625 -27.609375 C 17.816406 -26.960938 18.375 -25.742188 18.5625 -23.953125 C 18.875 -24.441406 19.15625 -24.9375 19.40625 -25.4375 C 21.6875 -36.082031 23.941406 -45.253906 26.171875 -52.953125 C 28.398438 -60.660156 30.488281 -66.664062 32.4375 -70.96875 C 34.394531 -75.269531 36.050781 -77.632812 37.40625 -78.0625 C 38.269531 -78.375 39.015625 -78.191406 39.640625 -77.515625 Z M 8.171875 -7.0625 C 9.648438 -9.21875 11.054688 -11.347656 12.390625 -13.453125 C 13.722656 -15.554688 14.976562 -17.628906 16.15625 -19.671875 C 15.226562 -19.984375 14.851562 -20.601562 15.03125 -21.53125 C 15.03125 -21.96875 15.015625 -22.664062 14.984375 -23.625 C 14.960938 -24.582031 14.578125 -25.1875 13.828125 -25.4375 C 13.703125 -25.5 13.519531 -25.53125 13.28125 -25.53125 C 12.101562 -25.53125 10.566406 -24.722656 8.671875 -23.109375 C 6.785156 -21.503906 5.039062 -19 3.4375 -15.59375 C 2.382812 -13.363281 1.703125 -11.242188 1.390625 -9.234375 C 1.078125 -7.222656 1.015625 -5.535156 1.203125 -4.171875 C 1.390625 -2.816406 1.734375 -2.015625 2.234375 -1.765625 C 2.410156 -1.640625 2.992188 -1.851562 3.984375 -2.40625 C 4.984375 -2.96875 6.378906 -4.519531 8.171875 -7.0625 Z M 33.796875 -61.546875 C 34.535156 -63.710938 35.101562 -65.582031 35.5 -67.15625 C 35.90625 -68.738281 36.234375 -70.085938 36.484375 -71.203125 C 35.304688 -68.785156 33.878906 -65.128906 32.203125 -60.234375 C 30.535156 -55.347656 28.710938 -49.070312 26.734375 -41.40625 C 28.035156 -44.5625 29.164062 -47.5625 30.125 -50.40625 C 31.082031 -53.25 31.960938 -55.910156 32.765625 -58.390625 C 32.953125 -58.941406 33.125 -59.476562 33.28125 -60 C 33.4375 -60.53125 33.609375 -61.046875 33.796875 -61.546875 Z M 33.796875 -61.546875 "/></g></g></g><g fill="#000000" fill-opacity="1"><g transform="translate(192.168326, 104.408528)"><g><path d="M 38.890625 -20.609375 C 39.328125 -20.421875 39.625 -20.09375 39.78125 -19.625 C 39.9375 -19.164062 39.921875 -18.71875 39.734375 -18.28125 C 38.554688 -15.875 37.269531 -13.460938 35.875 -11.046875 C 34.488281 -8.628906 33.035156 -6.414062 31.515625 -4.40625 C 29.992188 -2.394531 28.425781 -0.785156 26.8125 0.421875 C 25.207031 1.628906 23.601562 2.234375 22 2.234375 C 21.6875 2.234375 21.347656 2.203125 20.984375 2.140625 C 16.835938 1.328125 14.269531 -4.242188 13.28125 -14.578125 C 12.226562 -13.148438 11.003906 -11.550781 9.609375 -9.78125 C 8.210938 -8.019531 6.742188 -6.273438 5.203125 -4.546875 C 4.953125 -4.296875 4.546875 -3.90625 3.984375 -3.375 C 3.429688 -2.851562 2.78125 -2.4375 2.03125 -2.125 C 1.289062 -1.820312 0.550781 -1.859375 -0.1875 -2.234375 C -1.664062 -2.785156 -2.378906 -4.394531 -2.328125 -7.0625 C -2.328125 -8.601562 -2.03125 -10.519531 -1.4375 -12.8125 C -0.851562 -15.101562 -0.0195312 -17.40625 1.0625 -19.71875 C 2.144531 -22.039062 3.414062 -24.097656 4.875 -25.890625 C 6.332031 -27.691406 7.957031 -28.898438 9.75 -29.515625 C 10.863281 -29.953125 12.222656 -30.03125 13.828125 -29.75 C 15.441406 -29.46875 17.113281 -28.304688 18.84375 -26.265625 C 19.15625 -25.898438 19.296875 -25.46875 19.265625 -24.96875 C 19.234375 -24.476562 19.03125 -24.078125 18.65625 -23.765625 C 18.28125 -23.453125 17.84375 -23.3125 17.34375 -23.34375 C 16.851562 -23.375 16.457031 -23.578125 16.15625 -23.953125 C 14.664062 -25.679688 13.378906 -26.5 12.296875 -26.40625 C 11.210938 -26.3125 10.300781 -25.988281 9.5625 -25.4375 C 8.195312 -24.445312 6.957031 -23.019531 5.84375 -21.15625 C 4.726562 -19.300781 3.800781 -17.351562 3.0625 -15.3125 C 2.320312 -13.269531 1.796875 -11.367188 1.484375 -9.609375 C 1.171875 -7.847656 1.078125 -6.5625 1.203125 -5.75 C 1.390625 -5.875 1.59375 -6.03125 1.8125 -6.21875 C 2.03125 -6.40625 2.257812 -6.65625 2.5 -6.96875 C 4.363281 -9.007812 6.066406 -11.035156 7.609375 -13.046875 C 9.160156 -15.054688 10.492188 -16.832031 11.609375 -18.375 C 11.910156 -18.8125 12.203125 -19.226562 12.484375 -19.625 C 12.765625 -20.03125 13.03125 -20.390625 13.28125 -20.703125 C 13.769531 -21.316406 14.414062 -21.5 15.21875 -21.25 C 16.03125 -21.070312 16.460938 -20.546875 16.515625 -19.671875 C 16.703125 -15.648438 17.023438 -12.414062 17.484375 -9.96875 C 17.953125 -7.53125 18.460938 -5.707031 19.015625 -4.5 C 19.578125 -3.289062 20.101562 -2.46875 20.59375 -2.03125 C 21.09375 -1.601562 21.46875 -1.390625 21.71875 -1.390625 C 22.894531 -1.140625 24.78125 -2.34375 27.375 -5 C 29.976562 -7.664062 33.015625 -12.585938 36.484375 -19.765625 C 36.734375 -20.265625 37.085938 -20.59375 37.546875 -20.75 C 38.015625 -20.90625 38.460938 -20.859375 38.890625 -20.609375 Z M 38.890625 -20.609375 "/></g></g></g><g fill="#000000" fill-opacity="1"><g transform="translate(226.69297, 104.408528)"><g><path d="M 40.75 -21.078125 C 41.1875 -20.828125 41.492188 -20.46875 41.671875 -20 C 41.859375 -19.539062 41.832031 -19.09375 41.59375 -18.65625 C 40.414062 -16.125 38.972656 -13.28125 37.265625 -10.125 C 35.566406 -6.96875 33.757812 -3.796875 31.84375 -0.609375 C 29.925781 2.578125 27.972656 5.484375 25.984375 8.109375 C 24.003906 10.742188 22.085938 12.878906 20.234375 14.515625 C 18.378906 16.160156 16.707031 16.984375 15.21875 16.984375 C 14.789062 16.984375 14.390625 16.890625 14.015625 16.703125 C 12.710938 16.210938 11.859375 15.035156 11.453125 13.171875 C 11.054688 11.316406 11.109375 8.660156 11.609375 5.203125 C 12.472656 -1.046875 14.757812 -9.894531 18.46875 -21.34375 C 18.40625 -21.34375 18.359375 -21.328125 18.328125 -21.296875 C 18.296875 -21.265625 18.25 -21.25 18.1875 -21.25 C 16.957031 -20.382812 15.472656 -19.488281 13.734375 -18.5625 C 12.003906 -17.632812 10.207031 -17.015625 8.34375 -16.703125 C 6.488281 -16.398438 4.726562 -16.804688 3.0625 -17.921875 C 0.707031 -19.585938 -0.5 -21.90625 -0.5625 -24.875 C -0.625 -27.84375 0.488281 -31.09375 2.78125 -34.625 C 3.53125 -35.738281 4.503906 -36.972656 5.703125 -38.328125 C 6.910156 -39.691406 8.179688 -40.742188 9.515625 -41.484375 C 10.847656 -42.234375 12.039062 -42.269531 13.09375 -41.59375 C 13.644531 -41.28125 14.0625 -40.75 14.34375 -40 C 14.625 -39.257812 14.609375 -38.113281 14.296875 -36.5625 C 13.984375 -35.019531 13.238281 -32.945312 12.0625 -30.34375 C 10.882812 -27.75 9.125 -24.378906 6.78125 -20.234375 C 8.195312 -20.046875 9.785156 -20.445312 11.546875 -21.4375 C 13.316406 -22.425781 14.882812 -23.359375 16.25 -24.234375 C 17.539062 -25.097656 18.617188 -25.726562 19.484375 -26.125 C 20.359375 -26.53125 21.164062 -26.457031 21.90625 -25.90625 C 22.582031 -25.34375 22.859375 -24.660156 22.734375 -23.859375 C 22.617188 -23.054688 22.5 -22.4375 22.375 -22 C 20.332031 -15.5625 18.753906 -10.207031 17.640625 -5.9375 C 16.523438 -1.664062 15.765625 1.765625 15.359375 4.359375 C 14.960938 6.960938 14.765625 8.910156 14.765625 10.203125 C 14.765625 11.503906 14.851562 12.359375 15.03125 12.765625 C 15.21875 13.171875 15.3125 13.398438 15.3125 13.453125 C 16.0625 13.578125 17.59375 12.382812 19.90625 9.875 C 22.226562 7.375 25 3.601562 28.21875 -1.4375 C 31.4375 -6.476562 34.8125 -12.710938 38.34375 -20.140625 C 38.582031 -20.640625 38.9375 -20.960938 39.40625 -21.109375 C 39.875 -21.265625 40.320312 -21.253906 40.75 -21.078125 Z M 3.34375 -27.390625 C 2.96875 -26.085938 2.859375 -25.015625 3.015625 -24.171875 C 3.171875 -23.335938 3.40625 -22.675781 3.71875 -22.1875 C 5.695312 -25.65625 7.195312 -28.46875 8.21875 -30.625 C 9.238281 -32.789062 9.929688 -34.460938 10.296875 -35.640625 C 10.671875 -36.816406 10.890625 -37.65625 10.953125 -38.15625 C 10.273438 -37.78125 9.425781 -37.066406 8.40625 -36.015625 C 7.382812 -34.960938 6.390625 -33.691406 5.421875 -32.203125 C 4.460938 -30.722656 3.769531 -29.117188 3.34375 -27.390625 Z M 3.34375 -27.390625 "/></g></g></g><g fill="#000000" fill-opacity="1"><g transform="translate(179.347415, 188.00079)"><g><path d="M 32.453125 -12.421875 C 33.003906 -11.472656 32.851562 -10.234375 32 -8.703125 C 31.144531 -7.171875 29.664062 -5.5 27.5625 -3.6875 C 26.25 -2.582031 24.640625 -1.476562 22.734375 -0.375 C 23.242188 0.726562 23.796875 1.796875 24.390625 2.828125 C 24.992188 3.859375 25.671875 4.820312 26.421875 5.71875 C 26.679688 6.070312 26.796875 6.445312 26.765625 6.84375 C 26.742188 7.25 26.554688 7.578125 26.203125 7.828125 C 25.953125 8.023438 25.648438 8.125 25.296875 8.125 C 24.847656 8.125 24.472656 7.953125 24.171875 7.609375 C 22.660156 5.648438 21.328125 3.414062 20.171875 0.90625 C 17.867188 2.007812 15.488281 2.898438 13.03125 3.578125 C 10.570312 4.253906 8.335938 4.566406 6.328125 4.515625 C 4.316406 4.460938 2.832031 3.9375 1.875 2.9375 C -0.675781 0.125 1.757812 -4.894531 9.1875 -12.125 C 10.539062 -13.425781 11.78125 -14.691406 12.90625 -15.921875 C 14.039062 -17.148438 15.082031 -18.316406 16.03125 -19.421875 C 15.988281 -22.984375 16.242188 -26.398438 16.796875 -29.671875 C 17.347656 -32.773438 18.3125 -35.144531 19.6875 -36.78125 C 21.070312 -38.414062 22.414062 -39.332031 23.71875 -39.53125 C 25.375 -39.78125 26.578125 -39.15625 27.328125 -37.65625 C 28.085938 -36.144531 27.898438 -33.769531 26.765625 -30.53125 C 25.640625 -27.289062 23.039062 -23.238281 18.96875 -18.375 C 19.019531 -15.96875 19.257812 -13.445312 19.6875 -10.8125 C 20.113281 -8.175781 20.78125 -5.601562 21.6875 -3.09375 C 23.1875 -3.988281 24.515625 -4.914062 25.671875 -5.875 C 27.023438 -7.082031 28.003906 -8.085938 28.609375 -8.890625 C 29.210938 -9.691406 29.59375 -10.289062 29.75 -10.6875 C 29.695312 -10.632812 29.59375 -10.609375 29.4375 -10.609375 C 29.082031 -10.460938 28.726562 -10.476562 28.375 -10.65625 C 28.03125 -10.832031 27.785156 -11.117188 27.640625 -11.515625 C 27.484375 -11.867188 27.492188 -12.222656 27.671875 -12.578125 C 27.847656 -12.929688 28.132812 -13.179688 28.53125 -13.328125 C 29.84375 -13.773438 30.785156 -13.8125 31.359375 -13.4375 C 31.941406 -13.0625 32.304688 -12.722656 32.453125 -12.421875 Z M 19.65625 -29.140625 C 19.5 -28.285156 19.367188 -27.351562 19.265625 -26.34375 C 19.171875 -25.34375 19.097656 -24.265625 19.046875 -23.109375 C 21.003906 -25.722656 22.410156 -27.929688 23.265625 -29.734375 C 24.117188 -31.546875 24.617188 -33.003906 24.765625 -34.109375 C 24.921875 -35.210938 24.898438 -35.96875 24.703125 -36.375 C 24.597656 -36.570312 24.472656 -36.671875 24.328125 -36.671875 C 24.273438 -36.671875 24.222656 -36.671875 24.171875 -36.671875 C 23.460938 -36.566406 22.628906 -35.882812 21.671875 -34.625 C 20.722656 -33.375 20.050781 -31.546875 19.65625 -29.140625 Z M 4.0625 0.984375 C 4.5625 1.535156 5.601562 1.769531 7.1875 1.6875 C 8.769531 1.613281 10.628906 1.273438 12.765625 0.671875 C 14.898438 0.078125 17.019531 -0.722656 19.125 -1.734375 C 18.320312 -3.890625 17.679688 -6.109375 17.203125 -8.390625 C 16.722656 -10.679688 16.410156 -12.976562 16.265625 -15.28125 C 14.710938 -13.570312 13.03125 -11.816406 11.21875 -10.015625 C 8.8125 -7.703125 7.054688 -5.78125 5.953125 -4.25 C 4.847656 -2.71875 4.191406 -1.523438 3.984375 -0.671875 C 3.785156 0.179688 3.8125 0.734375 4.0625 0.984375 Z M 4.0625 0.984375 "/></g></g></g><g fill="#000000" fill-opacity="1"><g transform="translate(147.001472, 308.469783)"><g><path d="M 80.890625 15.96875 C 81.429688 15.96875 81.890625 16.15625 82.265625 16.53125 C 82.640625 16.90625 82.828125 17.367188 82.828125 17.921875 C 82.828125 18.460938 82.625 18.921875 82.21875 19.296875 C 81.8125 19.671875 81.332031 19.859375 80.78125 19.859375 C 77.300781 19.796875 73.359375 20.582031 68.953125 22.21875 C 64.554688 23.851562 59.96875 25.929688 55.1875 28.453125 C 50.40625 30.984375 45.765625 33.515625 41.265625 36.046875 C 35.253906 39.453125 29.828125 42.382812 24.984375 44.84375 C 20.140625 47.300781 16.046875 48.53125 12.703125 48.53125 C 10.859375 48.53125 9.320312 48.085938 8.09375 47.203125 C 4.945312 44.816406 4.296875 39.59375 6.140625 31.53125 C 7.304688 26.625 8.691406 20.941406 10.296875 14.484375 C 11.898438 8.035156 13.65625 1.175781 15.5625 -6.09375 C 17.476562 -13.363281 19.441406 -20.734375 21.453125 -28.203125 C 23.460938 -35.679688 25.457031 -42.867188 27.4375 -49.765625 C 30.101562 -58.972656 32.40625 -66.734375 34.34375 -73.046875 C 36.289062 -79.367188 37.960938 -84.539062 39.359375 -88.5625 C 40.765625 -92.59375 41.941406 -95.695312 42.890625 -97.875 C 43.847656 -100.0625 44.671875 -101.613281 45.359375 -102.53125 C 46.046875 -103.457031 46.609375 -103.988281 47.046875 -104.125 C 47.492188 -104.269531 47.921875 -104.304688 48.328125 -104.234375 C 49.628906 -104.023438 50.378906 -103.050781 50.578125 -101.3125 C 50.785156 -99.570312 50.753906 -96.859375 50.484375 -93.171875 C 50.410156 -92.628906 50.164062 -92.1875 49.75 -91.84375 C 49.34375 -91.5 48.867188 -91.363281 48.328125 -91.4375 C 47.785156 -91.4375 47.328125 -91.640625 46.953125 -92.046875 C 46.578125 -92.453125 46.421875 -92.929688 46.484375 -93.484375 C 46.617188 -94.710938 46.722656 -95.835938 46.796875 -96.859375 C 45.972656 -95.015625 44.859375 -92.144531 43.453125 -88.25 C 42.054688 -84.363281 40.300781 -78.988281 38.1875 -72.125 C 36.070312 -65.269531 33.476562 -56.453125 30.40625 -45.671875 C 28.5 -38.972656 26.570312 -32.023438 24.625 -24.828125 C 22.675781 -17.628906 20.78125 -10.53125 18.9375 -3.53125 C 17.09375 3.46875 15.398438 10.054688 13.859375 16.234375 C 12.328125 22.410156 11.050781 27.816406 10.03125 32.453125 C 9.414062 35.179688 9.09375 37.347656 9.0625 38.953125 C 9.03125 40.554688 9.164062 41.734375 9.46875 42.484375 C 9.78125 43.242188 10.101562 43.757812 10.4375 44.03125 C 11.394531 44.707031 12.878906 44.820312 14.890625 44.375 C 16.910156 43.9375 19.25 43.101562 21.90625 41.875 C 24.570312 40.644531 27.40625 39.210938 30.40625 37.578125 C 33.414062 35.941406 36.382812 34.300781 39.3125 32.65625 C 43.957031 30 48.753906 27.375 53.703125 24.78125 C 58.648438 22.1875 63.441406 20.035156 68.078125 18.328125 C 72.722656 16.617188 76.992188 15.832031 80.890625 15.96875 Z M 80.890625 15.96875 "/></g></g></g><g fill="#000000" fill-opacity="1"><g transform="translate(216.40762, 308.469783)"><g><path d="M 42.90625 -22.734375 C 43.382812 -22.523438 43.707031 -22.164062 43.875 -21.65625 C 44.039062 -21.144531 44.023438 -20.648438 43.828125 -20.171875 C 42.523438 -17.503906 41.101562 -14.835938 39.5625 -12.171875 C 38.03125 -9.515625 36.425781 -7.078125 34.75 -4.859375 C 33.082031 -2.640625 31.359375 -0.867188 29.578125 0.453125 C 27.804688 1.785156 26.035156 2.453125 24.265625 2.453125 C 23.921875 2.453125 23.546875 2.421875 23.140625 2.359375 C 18.566406 1.472656 15.734375 -4.671875 14.640625 -16.078125 C 13.484375 -14.503906 12.132812 -12.742188 10.59375 -10.796875 C 9.0625 -8.859375 7.441406 -6.929688 5.734375 -5.015625 C 5.460938 -4.742188 5.019531 -4.316406 4.40625 -3.734375 C 3.789062 -3.148438 3.070312 -2.6875 2.25 -2.34375 C 1.4375 -2.007812 0.617188 -2.046875 -0.203125 -2.453125 C -1.835938 -3.066406 -2.625 -4.84375 -2.5625 -7.78125 C -2.5625 -9.488281 -2.234375 -11.601562 -1.578125 -14.125 C -0.929688 -16.65625 -0.015625 -19.195312 1.171875 -21.75 C 2.367188 -24.3125 3.769531 -26.582031 5.375 -28.5625 C 6.976562 -30.539062 8.769531 -31.875 10.75 -32.5625 C 11.976562 -33.039062 13.476562 -33.125 15.25 -32.8125 C 17.03125 -32.507812 18.875 -31.226562 20.78125 -28.96875 C 21.125 -28.5625 21.273438 -28.082031 21.234375 -27.53125 C 21.203125 -26.988281 20.984375 -26.550781 20.578125 -26.21875 C 20.171875 -25.875 19.691406 -25.71875 19.140625 -25.75 C 18.597656 -25.78125 18.15625 -26.003906 17.8125 -26.421875 C 16.175781 -28.328125 14.757812 -29.226562 13.5625 -29.125 C 12.375 -29.019531 11.367188 -28.664062 10.546875 -28.0625 C 9.046875 -26.96875 7.679688 -25.394531 6.453125 -23.34375 C 5.222656 -21.289062 4.195312 -19.140625 3.375 -16.890625 C 2.5625 -14.640625 1.984375 -12.539062 1.640625 -10.59375 C 1.296875 -8.644531 1.191406 -7.226562 1.328125 -6.34375 C 1.535156 -6.476562 1.757812 -6.648438 2 -6.859375 C 2.238281 -7.066406 2.492188 -7.335938 2.765625 -7.671875 C 4.816406 -9.929688 6.691406 -12.171875 8.390625 -14.390625 C 10.097656 -16.609375 11.566406 -18.566406 12.796875 -20.265625 C 13.140625 -20.742188 13.460938 -21.207031 13.765625 -21.65625 C 14.078125 -22.101562 14.367188 -22.492188 14.640625 -22.828125 C 15.191406 -23.515625 15.910156 -23.722656 16.796875 -23.453125 C 17.679688 -23.242188 18.15625 -22.660156 18.21875 -21.703125 C 18.425781 -17.265625 18.785156 -13.695312 19.296875 -11 C 19.804688 -8.3125 20.367188 -6.300781 20.984375 -4.96875 C 21.597656 -3.632812 22.175781 -2.726562 22.71875 -2.25 C 23.269531 -1.769531 23.679688 -1.53125 23.953125 -1.53125 C 25.253906 -1.257812 27.335938 -2.59375 30.203125 -5.53125 C 33.066406 -8.46875 36.410156 -13.894531 40.234375 -21.8125 C 40.515625 -22.351562 40.910156 -22.707031 41.421875 -22.875 C 41.929688 -23.050781 42.425781 -23.003906 42.90625 -22.734375 Z M 42.90625 -22.734375 "/></g></g></g><g fill="#000000" fill-opacity="1"><g transform="translate(254.488868, 308.469783)"><g><path d="M 86.421875 -60.40625 C 86.753906 -60 86.882812 -59.519531 86.8125 -58.96875 C 86.75 -58.425781 86.484375 -57.984375 86.015625 -57.640625 C 85.191406 -57.097656 84.40625 -57.132812 83.65625 -57.75 C 82.769531 -58.09375 80.738281 -58.332031 77.5625 -58.46875 C 74.382812 -58.601562 70.40625 -58.6875 65.625 -58.71875 C 60.851562 -58.75 55.597656 -58.726562 49.859375 -58.65625 C 44.128906 -58.59375 38.242188 -58.507812 32.203125 -58.40625 C 26.160156 -58.3125 20.304688 -58.195312 14.640625 -58.0625 C 12.523438 -49.1875 10.304688 -39.539062 7.984375 -29.125 C 5.660156 -18.71875 3.375 -8.15625 1.125 2.5625 C -1.8125 16.625 -4.082031 28.160156 -5.6875 37.171875 C -7.289062 46.179688 -8.332031 52.695312 -8.8125 56.71875 C -8.664062 56.71875 -8.523438 56.753906 -8.390625 56.828125 C -7.847656 56.960938 -7.472656 57.285156 -7.265625 57.796875 C -7.066406 58.304688 -7.066406 58.800781 -7.265625 59.28125 C -7.679688 60.445312 -8.144531 61.523438 -8.65625 62.515625 C -9.164062 63.503906 -9.863281 64 -10.75 64 C -10.957031 64 -11.195312 63.960938 -11.46875 63.890625 C -12.425781 63.546875 -12.953125 62.8125 -13.046875 61.6875 C -13.148438 60.5625 -13.066406 59.007812 -12.796875 57.03125 C -12.523438 54.164062 -11.910156 50.035156 -10.953125 44.640625 C -10.140625 39.585938 -9.082031 33.679688 -7.78125 26.921875 C -6.488281 20.171875 -4.988281 12.765625 -3.28125 4.703125 C -1.019531 -6.210938 1.300781 -17.0625 3.6875 -27.84375 C 6.070312 -38.632812 8.359375 -48.671875 10.546875 -57.953125 C 7.265625 -57.878906 4.15625 -57.804688 1.21875 -57.734375 C -1.707031 -57.671875 -4.363281 -57.609375 -6.75 -57.546875 C -11.332031 -57.410156 -15.328125 -57.304688 -18.734375 -57.234375 C -22.148438 -57.171875 -24.570312 -57.140625 -26 -57.140625 C -26.550781 -57.140625 -27.015625 -57.328125 -27.390625 -57.703125 C -27.765625 -58.078125 -27.953125 -58.535156 -27.953125 -59.078125 C -27.953125 -59.628906 -27.765625 -60.09375 -27.390625 -60.46875 C -27.015625 -60.84375 -26.550781 -61.03125 -26 -61.03125 C -24.570312 -61.03125 -22.164062 -61.078125 -18.78125 -61.171875 C -15.40625 -61.273438 -11.429688 -61.394531 -6.859375 -61.53125 C -3.585938 -61.601562 -0.414062 -61.671875 2.65625 -61.734375 C 5.726562 -61.804688 8.695312 -61.878906 11.5625 -61.953125 C 12.59375 -66.316406 13.601562 -70.425781 14.59375 -74.28125 C 15.582031 -78.132812 16.519531 -81.664062 17.40625 -84.875 C 17.539062 -85.425781 17.847656 -85.835938 18.328125 -86.109375 C 18.804688 -86.378906 19.285156 -86.445312 19.765625 -86.3125 C 20.304688 -86.175781 20.710938 -85.867188 20.984375 -85.390625 C 21.265625 -84.910156 21.332031 -84.398438 21.1875 -83.859375 C 19.550781 -77.785156 17.675781 -70.515625 15.5625 -62.046875 C 26.207031 -62.253906 35.316406 -62.40625 42.890625 -62.5 C 50.472656 -62.601562 56.820312 -62.65625 61.9375 -62.65625 C 67.0625 -62.65625 71.207031 -62.585938 74.375 -62.453125 C 77.550781 -62.316406 79.957031 -62.160156 81.59375 -61.984375 C 83.238281 -61.816406 84.398438 -61.597656 85.078125 -61.328125 C 85.765625 -61.054688 86.210938 -60.75 86.421875 -60.40625 Z M 86.421875 -60.40625 "/></g></g></g><g fill="#000000" fill-opacity="1"><g transform="translate(268.103943, 308.469783)"><g><path d="M 48.53125 -23.453125 C 48.9375 -23.171875 49.207031 -22.757812 49.34375 -22.21875 C 49.488281 -21.675781 49.421875 -21.164062 49.140625 -20.6875 C 45.867188 -15.425781 42.96875 -11.15625 40.4375 -7.875 C 37.914062 -4.601562 35.75 -2.113281 33.9375 -0.40625 C 32.132812 1.300781 30.617188 2.460938 29.390625 3.078125 C 28.160156 3.691406 27.171875 4 26.421875 4 C 25.671875 4 25.085938 3.960938 24.671875 3.890625 C 23.109375 3.484375 21.945312 2.546875 21.1875 1.078125 C 20.4375 -0.390625 19.941406 -1.910156 19.703125 -3.484375 C 19.472656 -5.054688 19.320312 -6.25 19.25 -7.0625 C 19.113281 -9.457031 18.835938 -11.0625 18.421875 -11.875 C 18.015625 -12.695312 17.710938 -13.109375 17.515625 -13.109375 C 17.441406 -13.109375 17.40625 -13.109375 17.40625 -13.109375 C 16.519531 -13.109375 15.050781 -11.859375 13 -9.359375 C 10.957031 -6.867188 8.550781 -2.960938 5.78125 2.359375 C 3.019531 7.679688 0.140625 14.609375 -2.859375 23.140625 C -3.140625 24.023438 -3.753906 24.46875 -4.703125 24.46875 C -4.847656 24.46875 -4.988281 24.46875 -5.125 24.46875 C -6.207031 24.195312 -6.71875 23.515625 -6.65625 22.421875 C -6.582031 21.265625 -6.273438 19.179688 -5.734375 16.171875 C -5.191406 13.171875 -4.457031 9.570312 -3.53125 5.375 C -2.613281 1.175781 -1.585938 -3.378906 -0.453125 -8.296875 C 0.671875 -13.210938 1.828125 -18.191406 3.015625 -23.234375 C 4.210938 -28.285156 5.359375 -33.113281 6.453125 -37.71875 C 7.546875 -42.332031 8.535156 -46.484375 9.421875 -50.171875 C 10.304688 -53.859375 11.019531 -56.8125 11.5625 -59.03125 C 12.113281 -61.25 12.390625 -62.390625 12.390625 -62.453125 C 13.960938 -68.734375 15.703125 -74.453125 17.609375 -79.609375 C 19.523438 -84.765625 21.421875 -88.910156 23.296875 -92.046875 C 25.171875 -95.191406 26.828125 -96.898438 28.265625 -97.171875 C 29.421875 -97.367188 30.304688 -97.023438 30.921875 -96.140625 C 31.878906 -94.773438 31.789062 -91.925781 30.65625 -87.59375 C 29.53125 -83.257812 27.484375 -77.78125 24.515625 -71.15625 C 21.546875 -64.539062 17.773438 -57.132812 13.203125 -48.9375 C 11.972656 -43.820312 10.625 -38.222656 9.15625 -32.140625 C 7.695312 -26.066406 6.265625 -19.957031 4.859375 -13.8125 C 3.460938 -7.675781 2.1875 -2.015625 1.03125 3.171875 C 2.863281 -0.710938 4.753906 -4.222656 6.703125 -7.359375 C 8.648438 -10.503906 10.597656 -12.945312 12.546875 -14.6875 C 14.492188 -16.425781 16.316406 -17.195312 18.015625 -17 C 19.515625 -16.789062 20.625 -16.035156 21.34375 -14.734375 C 22.0625 -13.441406 22.539062 -12.0625 22.78125 -10.59375 C 23.019531 -9.125 23.140625 -8.050781 23.140625 -7.375 C 23.347656 -4.84375 23.6875 -3 24.15625 -1.84375 C 24.632812 -0.6875 25.113281 -0.0703125 25.59375 0 C 25.726562 0.0703125 26.1875 -0.0078125 26.96875 -0.25 C 27.757812 -0.488281 28.921875 -1.253906 30.453125 -2.546875 C 31.992188 -3.847656 34.023438 -6.085938 36.546875 -9.265625 C 39.078125 -12.441406 42.148438 -16.960938 45.765625 -22.828125 C 46.035156 -23.242188 46.441406 -23.519531 46.984375 -23.65625 C 47.535156 -23.789062 48.050781 -23.722656 48.53125 -23.453125 Z M 27.546875 -91.4375 C 26.378906 -89.726562 24.820312 -86.707031 22.875 -82.375 C 20.9375 -78.039062 18.976562 -72.148438 17 -64.703125 C 20.476562 -71.597656 23.019531 -77.265625 24.625 -81.703125 C 26.226562 -86.140625 27.203125 -89.382812 27.546875 -91.4375 Z M 27.546875 -91.4375 "/></g></g></g><g fill="#000000" fill-opacity="1"><g transform="translate(312.224957, 308.469783)"><g><path d="M 30 -23.34375 C 30.476562 -23.070312 30.769531 -22.660156 30.875 -22.109375 C 30.976562 -21.566406 30.890625 -21.054688 30.609375 -20.578125 C 29.316406 -18.535156 27.679688 -16.25 25.703125 -13.71875 C 23.722656 -11.195312 21.570312 -8.789062 19.25 -6.5 C 16.925781 -4.21875 14.617188 -2.320312 12.328125 -0.8125 C 10.046875 0.6875 7.953125 1.4375 6.046875 1.4375 C 5.222656 1.4375 4.503906 1.300781 3.890625 1.03125 C 1.566406 0 0.285156 -2.472656 0.046875 -6.390625 C -0.191406 -10.316406 0.609375 -15.863281 2.453125 -23.03125 C 2.585938 -23.582031 2.894531 -23.992188 3.375 -24.265625 C 3.851562 -24.535156 4.332031 -24.601562 4.8125 -24.46875 C 5.351562 -24.332031 5.757812 -24.023438 6.03125 -23.546875 C 6.3125 -23.066406 6.382812 -22.585938 6.25 -22.109375 C 5.15625 -17.742188 4.46875 -14.28125 4.1875 -11.71875 C 3.914062 -9.164062 3.863281 -7.238281 4.03125 -5.9375 C 4.207031 -4.644531 4.46875 -3.773438 4.8125 -3.328125 C 5.15625 -2.878906 5.359375 -2.65625 5.421875 -2.65625 C 6.304688 -2.25 7.601562 -2.539062 9.3125 -3.53125 C 11.019531 -4.519531 12.929688 -5.988281 15.046875 -7.9375 C 17.160156 -9.882812 19.289062 -12.132812 21.4375 -14.6875 C 23.59375 -17.25 25.523438 -19.929688 27.234375 -22.734375 C 27.578125 -23.210938 28.003906 -23.5 28.515625 -23.59375 C 29.023438 -23.695312 29.519531 -23.613281 30 -23.34375 Z M 5.84375 -31.53125 C 4.46875 -31.601562 3.765625 -31.992188 3.734375 -32.703125 C 3.703125 -33.421875 4.007812 -34.15625 4.65625 -34.90625 C 5.300781 -35.664062 5.96875 -36.179688 6.65625 -36.453125 C 7.75 -36.796875 8.550781 -36.726562 9.0625 -36.25 C 9.570312 -35.769531 9.8125 -35.15625 9.78125 -34.40625 C 9.75 -33.65625 9.40625 -32.972656 8.75 -32.359375 C 8.101562 -31.742188 7.132812 -31.46875 5.84375 -31.53125 Z M 5.84375 -31.53125 "/></g></g></g></svg>